<mxfile host="app.diagrams.net" modified="2021-06-03T10:45:28.386Z" agent="5.0 (Windows NT 10.0; Win64; x64) AppleWebKit/537.36 (KHTML, like Gecko) Chrome/90.0.4430.212 Safari/537.36" etag="2sKWDAMeVccKr3-DFUbP" version="14.7.3" type="github">
  <diagram id="HYRi4LzbR30ofS0orxzd" name="Page-1">
    <mxGraphModel dx="1411" dy="867" grid="1" gridSize="10" guides="1" tooltips="1" connect="1" arrows="1" fold="1" page="1" pageScale="1" pageWidth="827" pageHeight="1169" math="0" shadow="0">
      <root>
        <mxCell id="0" />
        <mxCell id="1" parent="0" />
        <mxCell id="nxqc9rwWWNbtkjqzMC0G-7" value="" style="ellipse;html=1;shape=startState;fillColor=#000000;strokeColor=#ff0000;" vertex="1" parent="1">
          <mxGeometry x="430" y="40" width="30" height="30" as="geometry" />
        </mxCell>
        <mxCell id="nxqc9rwWWNbtkjqzMC0G-8" value="" style="edgeStyle=orthogonalEdgeStyle;html=1;verticalAlign=bottom;endArrow=open;endSize=8;strokeColor=#ff0000;" edge="1" source="nxqc9rwWWNbtkjqzMC0G-7" parent="1">
          <mxGeometry relative="1" as="geometry">
            <mxPoint x="445" y="100" as="targetPoint" />
          </mxGeometry>
        </mxCell>
        <mxCell id="nxqc9rwWWNbtkjqzMC0G-10" value="Нажатие на кнопку" style="rounded=1;whiteSpace=wrap;html=1;absoluteArcSize=1;arcSize=14;strokeWidth=2;" vertex="1" parent="1">
          <mxGeometry x="395" y="110" width="100" height="40" as="geometry" />
        </mxCell>
        <mxCell id="nxqc9rwWWNbtkjqzMC0G-14" value="" style="strokeWidth=2;html=1;shape=mxgraph.flowchart.annotation_2;align=left;labelPosition=right;pointerEvents=1;direction=south;" vertex="1" parent="1">
          <mxGeometry x="402.5" y="150" width="85" height="50" as="geometry" />
        </mxCell>
        <mxCell id="nxqc9rwWWNbtkjqzMC0G-15" value="число" style="text;html=1;align=center;verticalAlign=middle;resizable=0;points=[];autosize=1;strokeColor=none;" vertex="1" parent="1">
          <mxGeometry x="385" y="150" width="50" height="20" as="geometry" />
        </mxCell>
        <mxCell id="nxqc9rwWWNbtkjqzMC0G-16" value="Сохраняем" style="rounded=1;whiteSpace=wrap;html=1;absoluteArcSize=1;arcSize=14;strokeWidth=2;" vertex="1" parent="1">
          <mxGeometry x="340" y="200" width="100" height="30" as="geometry" />
        </mxCell>
        <mxCell id="nxqc9rwWWNbtkjqzMC0G-17" value="нет" style="text;html=1;align=center;verticalAlign=middle;resizable=0;points=[];autosize=1;strokeColor=none;" vertex="1" parent="1">
          <mxGeometry x="452.5" y="150" width="30" height="20" as="geometry" />
        </mxCell>
        <mxCell id="nxqc9rwWWNbtkjqzMC0G-18" value="Ничего не делаем" style="rounded=1;whiteSpace=wrap;html=1;absoluteArcSize=1;arcSize=14;strokeWidth=2;" vertex="1" parent="1">
          <mxGeometry x="450" y="200" width="100" height="30" as="geometry" />
        </mxCell>
        <mxCell id="nxqc9rwWWNbtkjqzMC0G-23" value="Нажатие на кнопку" style="rounded=1;whiteSpace=wrap;html=1;absoluteArcSize=1;arcSize=14;strokeWidth=2;" vertex="1" parent="1">
          <mxGeometry x="340" y="260" width="100" height="40" as="geometry" />
        </mxCell>
        <mxCell id="nxqc9rwWWNbtkjqzMC0G-26" value="" style="html=1;verticalAlign=bottom;endArrow=block;" edge="1" parent="1">
          <mxGeometry x="-0.3333" width="80" relative="1" as="geometry">
            <mxPoint x="389.86" y="230" as="sourcePoint" />
            <mxPoint x="389.86" y="260" as="targetPoint" />
            <mxPoint as="offset" />
          </mxGeometry>
        </mxCell>
        <mxCell id="nxqc9rwWWNbtkjqzMC0G-28" value="" style="strokeWidth=2;html=1;shape=mxgraph.flowchart.annotation_2;align=left;labelPosition=right;pointerEvents=1;direction=south;" vertex="1" parent="1">
          <mxGeometry x="347.5" y="300" width="85" height="50" as="geometry" />
        </mxCell>
        <mxCell id="nxqc9rwWWNbtkjqzMC0G-29" value="число" style="text;html=1;align=center;verticalAlign=middle;resizable=0;points=[];autosize=1;strokeColor=none;" vertex="1" parent="1">
          <mxGeometry x="330" y="300" width="50" height="20" as="geometry" />
        </mxCell>
        <mxCell id="nxqc9rwWWNbtkjqzMC0G-30" value="Сохраняем" style="rounded=1;whiteSpace=wrap;html=1;absoluteArcSize=1;arcSize=14;strokeWidth=2;" vertex="1" parent="1">
          <mxGeometry x="285" y="350" width="100" height="30" as="geometry" />
        </mxCell>
        <mxCell id="nxqc9rwWWNbtkjqzMC0G-31" value="операция" style="text;html=1;align=center;verticalAlign=middle;resizable=0;points=[];autosize=1;strokeColor=none;" vertex="1" parent="1">
          <mxGeometry x="395" y="300" width="70" height="20" as="geometry" />
        </mxCell>
        <mxCell id="nxqc9rwWWNbtkjqzMC0G-32" value="Выводим информацию о операции&amp;nbsp;" style="rounded=1;whiteSpace=wrap;html=1;absoluteArcSize=1;arcSize=14;strokeWidth=2;" vertex="1" parent="1">
          <mxGeometry x="395" y="350" width="100" height="50" as="geometry" />
        </mxCell>
        <mxCell id="nxqc9rwWWNbtkjqzMC0G-35" value="" style="html=1;verticalAlign=bottom;endArrow=block;" edge="1" parent="1">
          <mxGeometry width="80" relative="1" as="geometry">
            <mxPoint x="444.76" y="400" as="sourcePoint" />
            <mxPoint x="445" y="420" as="targetPoint" />
          </mxGeometry>
        </mxCell>
        <mxCell id="nxqc9rwWWNbtkjqzMC0G-36" value="Запоминаем операцию" style="rounded=1;whiteSpace=wrap;html=1;absoluteArcSize=1;arcSize=14;strokeWidth=2;" vertex="1" parent="1">
          <mxGeometry x="395" y="420" width="100" height="30" as="geometry" />
        </mxCell>
        <mxCell id="nxqc9rwWWNbtkjqzMC0G-37" value="" style="html=1;verticalAlign=bottom;endArrow=block;" edge="1" parent="1">
          <mxGeometry width="80" relative="1" as="geometry">
            <mxPoint x="444.88" y="450" as="sourcePoint" />
            <mxPoint x="445.12" y="470" as="targetPoint" />
          </mxGeometry>
        </mxCell>
        <mxCell id="nxqc9rwWWNbtkjqzMC0G-38" value="Нажатие на кнопку" style="rounded=1;whiteSpace=wrap;html=1;absoluteArcSize=1;arcSize=14;strokeWidth=2;" vertex="1" parent="1">
          <mxGeometry x="395" y="470" width="100" height="40" as="geometry" />
        </mxCell>
        <mxCell id="nxqc9rwWWNbtkjqzMC0G-39" value="" style="strokeWidth=2;html=1;shape=mxgraph.flowchart.annotation_2;align=left;labelPosition=right;pointerEvents=1;direction=south;" vertex="1" parent="1">
          <mxGeometry x="402.5" y="510" width="85" height="50" as="geometry" />
        </mxCell>
        <mxCell id="nxqc9rwWWNbtkjqzMC0G-40" value="число" style="text;html=1;align=center;verticalAlign=middle;resizable=0;points=[];autosize=1;strokeColor=none;" vertex="1" parent="1">
          <mxGeometry x="385" y="510" width="50" height="20" as="geometry" />
        </mxCell>
        <mxCell id="nxqc9rwWWNbtkjqzMC0G-41" value="Сохраняем" style="rounded=1;whiteSpace=wrap;html=1;absoluteArcSize=1;arcSize=14;strokeWidth=2;" vertex="1" parent="1">
          <mxGeometry x="340" y="560" width="100" height="30" as="geometry" />
        </mxCell>
        <mxCell id="nxqc9rwWWNbtkjqzMC0G-42" value="операция" style="text;html=1;align=center;verticalAlign=middle;resizable=0;points=[];autosize=1;strokeColor=none;" vertex="1" parent="1">
          <mxGeometry x="450" y="510" width="70" height="20" as="geometry" />
        </mxCell>
        <mxCell id="nxqc9rwWWNbtkjqzMC0G-43" value="ничего не делаем" style="rounded=1;whiteSpace=wrap;html=1;absoluteArcSize=1;arcSize=14;strokeWidth=2;" vertex="1" parent="1">
          <mxGeometry x="450" y="560" width="100" height="50" as="geometry" />
        </mxCell>
        <mxCell id="nxqc9rwWWNbtkjqzMC0G-45" value="нажато &quot;=&quot;" style="text;html=1;align=center;verticalAlign=middle;resizable=0;points=[];autosize=1;strokeColor=none;" vertex="1" parent="1">
          <mxGeometry x="315" y="590" width="70" height="20" as="geometry" />
        </mxCell>
        <mxCell id="nxqc9rwWWNbtkjqzMC0G-46" value="проверяем достаточно ли информации для проведения операций" style="rounded=1;whiteSpace=wrap;html=1;absoluteArcSize=1;arcSize=14;strokeWidth=2;" vertex="1" parent="1">
          <mxGeometry x="340" y="620" width="100" height="80" as="geometry" />
        </mxCell>
        <mxCell id="nxqc9rwWWNbtkjqzMC0G-47" value="" style="html=1;verticalAlign=bottom;endArrow=block;" edge="1" parent="1">
          <mxGeometry width="80" relative="1" as="geometry">
            <mxPoint x="389.71000000000004" y="590" as="sourcePoint" />
            <mxPoint x="389.71000000000004" y="620" as="targetPoint" />
          </mxGeometry>
        </mxCell>
        <mxCell id="nxqc9rwWWNbtkjqzMC0G-48" value="" style="strokeWidth=2;html=1;shape=mxgraph.flowchart.annotation_2;align=left;labelPosition=right;pointerEvents=1;direction=south;" vertex="1" parent="1">
          <mxGeometry x="340" y="700" width="100" height="50" as="geometry" />
        </mxCell>
        <mxCell id="nxqc9rwWWNbtkjqzMC0G-49" value="нет" style="text;html=1;align=center;verticalAlign=middle;resizable=0;points=[];autosize=1;strokeColor=none;" vertex="1" parent="1">
          <mxGeometry x="335" y="700" width="30" height="20" as="geometry" />
        </mxCell>
        <mxCell id="nxqc9rwWWNbtkjqzMC0G-50" value="ничего не делаем" style="rounded=1;whiteSpace=wrap;html=1;absoluteArcSize=1;arcSize=14;strokeWidth=2;" vertex="1" parent="1">
          <mxGeometry x="285" y="750" width="100" height="50" as="geometry" />
        </mxCell>
        <mxCell id="nxqc9rwWWNbtkjqzMC0G-51" value="да" style="text;html=1;align=center;verticalAlign=middle;resizable=0;points=[];autosize=1;strokeColor=none;" vertex="1" parent="1">
          <mxGeometry x="399" y="700" width="30" height="20" as="geometry" />
        </mxCell>
        <mxCell id="nxqc9rwWWNbtkjqzMC0G-52" value="берем сохраненные данные и производим с ними математические операции" style="rounded=1;whiteSpace=wrap;html=1;absoluteArcSize=1;arcSize=14;strokeWidth=2;" vertex="1" parent="1">
          <mxGeometry x="395" y="750" width="105" height="110" as="geometry" />
        </mxCell>
        <mxCell id="nxqc9rwWWNbtkjqzMC0G-53" value="" style="strokeWidth=2;html=1;shape=mxgraph.flowchart.annotation_2;align=left;labelPosition=right;pointerEvents=1;direction=south;" vertex="1" parent="1">
          <mxGeometry x="395" y="860" width="100" height="50" as="geometry" />
        </mxCell>
        <mxCell id="nxqc9rwWWNbtkjqzMC0G-54" value="ошибка" style="rounded=1;whiteSpace=wrap;html=1;absoluteArcSize=1;arcSize=14;strokeWidth=2;" vertex="1" parent="1">
          <mxGeometry x="452.5" y="910" width="100" height="30" as="geometry" />
        </mxCell>
        <mxCell id="nxqc9rwWWNbtkjqzMC0G-55" value="есть деление на 0" style="text;html=1;align=center;verticalAlign=middle;resizable=0;points=[];autosize=1;strokeColor=none;" vertex="1" parent="1">
          <mxGeometry x="442.5" y="860" width="120" height="20" as="geometry" />
        </mxCell>
        <mxCell id="nxqc9rwWWNbtkjqzMC0G-56" value="показываем результат операций" style="rounded=1;whiteSpace=wrap;html=1;absoluteArcSize=1;arcSize=14;strokeWidth=2;" vertex="1" parent="1">
          <mxGeometry x="342.5" y="910" width="100" height="60" as="geometry" />
        </mxCell>
        <mxCell id="nxqc9rwWWNbtkjqzMC0G-57" value="нет деления на 0" style="text;html=1;align=center;verticalAlign=middle;resizable=0;points=[];autosize=1;strokeColor=none;" vertex="1" parent="1">
          <mxGeometry x="325" y="860" width="110" height="20" as="geometry" />
        </mxCell>
        <mxCell id="nxqc9rwWWNbtkjqzMC0G-58" value="" style="ellipse;html=1;shape=endState;fillColor=#000000;strokeColor=#ff0000;" vertex="1" parent="1">
          <mxGeometry x="429" y="1020" width="30" height="30" as="geometry" />
        </mxCell>
        <mxCell id="nxqc9rwWWNbtkjqzMC0G-59" value="" style="strokeWidth=2;html=1;shape=mxgraph.flowchart.annotation_2;align=left;labelPosition=right;pointerEvents=1;direction=north;" vertex="1" parent="1">
          <mxGeometry x="395" y="970" width="100" height="50" as="geometry" />
        </mxCell>
        <mxCell id="nxqc9rwWWNbtkjqzMC0G-60" value="" style="html=1;verticalAlign=bottom;endArrow=block;" edge="1" parent="1">
          <mxGeometry width="80" relative="1" as="geometry">
            <mxPoint x="495" y="489.58" as="sourcePoint" />
            <mxPoint x="575" y="489.58" as="targetPoint" />
          </mxGeometry>
        </mxCell>
        <mxCell id="nxqc9rwWWNbtkjqzMC0G-61" value="очистить" style="text;html=1;align=center;verticalAlign=middle;resizable=0;points=[];autosize=1;strokeColor=none;" vertex="1" parent="1">
          <mxGeometry x="495" y="470" width="70" height="20" as="geometry" />
        </mxCell>
        <mxCell id="nxqc9rwWWNbtkjqzMC0G-62" value="удаляем все введенную ранее информацию" style="rounded=1;whiteSpace=wrap;html=1;absoluteArcSize=1;arcSize=14;strokeWidth=2;" vertex="1" parent="1">
          <mxGeometry x="580" y="455" width="120" height="70" as="geometry" />
        </mxCell>
      </root>
    </mxGraphModel>
  </diagram>
</mxfile>
